<svg height="1950" width="720" xmlns="http://www.w3.org/2000/svg">
<rect height="1950" fill="#555" width="720"></rect>
<text fill="#7f7" font-family="Courier New" font-size="12" xml:space="preserve">
<tspan x="10" y="26"></tspan>
<tspan x="10" y="42">&gt; npmdoc-image-webpack-loader@0.0.1 test /home/travis/build/npmdoc/node-npmdoc-image-webpack-loa\</tspan>
<tspan x="10" y="58">der</tspan>
<tspan x="10" y="74">&gt; (set -e; export PORT=$(utility2 shServerPortRandom); utility2 test test.js)</tspan>
<tspan x="10" y="90"></tspan>
<tspan x="10" y="106"></tspan>
<tspan x="10" y="122">[MODE_BUILD=npmTest] - 2017-04-07T21:59:09Z - npm-testing /home/travis/build/npmdoc/node-npmdoc-\</tspan>
<tspan x="10" y="138">image-webpack-loader</tspan>
<tspan x="10" y="154"></tspan>
<tspan x="10" y="170"></tspan>
<tspan x="10" y="186">covering $ /home/travis/.nvm/versions/node/v6.10.2/bin/node /home/travis/build/npmdoc/node-npmdo\</tspan>
<tspan x="10" y="202">c-image-webpack-loader/test.js</tspan>
<tspan x="10" y="218">merging file:///home/travis/build/npmdoc/node-npmdoc-image-webpack-loader/tmp/build/test-report.\</tspan>
<tspan x="10" y="234">json to test-report</tspan>
<tspan x="10" y="250">&gt; server listening on http-port 56973</tspan>
<tspan x="10" y="266">created apidoc file:///home/travis/build/npmdoc/node-npmdoc-image-webpack-loader/tmp/build/apido\</tspan>
<tspan x="10" y="282">c.html</tspan>
<tspan x="10" y="298"></tspan>
<tspan x="10" y="314"></tspan>
<tspan x="10" y="330">browserTest - created electron entry-page /home/travis/build/npmdoc/node-npmdoc-image-webpack-lo\</tspan>
<tspan x="10" y="346">ader/tmp/electron.15b4a6da2170.63ca68fba7b01.html</tspan>
<tspan x="10" y="362"></tspan>
<tspan x="10" y="378">[node test-case 1 of 6 passed] - testCase_buildLib_default</tspan>
<tspan x="10" y="394">[node test-case 2 of 6 passed] - testCase_buildReadme_default</tspan>
<tspan x="10" y="410">[node test-case 3 of 6 passed] - testCase_buildTest_default</tspan>
<tspan x="10" y="426"></tspan>
<tspan x="10" y="442">browserTest - created electron entry-page /home/travis/build/npmdoc/node-npmdoc-image-webpack-lo\</tspan>
<tspan x="10" y="458">ader/tmp/electron.15b4a6da2400.3832caa136da8.html</tspan>
<tspan x="10" y="474"></tspan>
<tspan x="10" y="490">Xlib:  extension "RANDR" missing on display ":99.0".</tspan>
<tspan x="10" y="506">Xlib:  extension "RANDR" missing on display ":99.0".</tspan>
<tspan x="10" y="522">merging file:///home/travis/build/npmdoc/node-npmdoc-image-webpack-loader/tmp/build/test-report.\</tspan>
<tspan x="10" y="538">json to test-report</tspan>
<tspan x="10" y="554">Xlib:  extension "RANDR" missing on display ":99.0".</tspan>
<tspan x="10" y="570">[4988:0407/215911:WARNING:audio_manager.cc(314)] Multiple instances of AudioManager detected</tspan>
<tspan x="10" y="586">[4988:0407/215911:WARNING:audio_manager.cc(275)] Multiple instances of AudioManager detected</tspan>
<tspan x="10" y="602">&gt; server listening on http-port 35504</tspan>
<tspan x="10" y="618">[5021:0407/215911:ERROR:sandbox_linux.cc(343)] InitializeSandbox() called with multiple threads \</tspan>
<tspan x="10" y="634">in process gpu-process. </tspan>
<tspan x="10" y="650">[4988:0407/215911:ERROR:browser_gpu_channel_host_factory.cc(131)] Failed to create channel.</tspan>
<tspan x="10" y="666">merging file:///home/travis/build/npmdoc/node-npmdoc-image-webpack-loader/tmp/build/test-report.\</tspan>
<tspan x="10" y="682">json to test-report</tspan>
<tspan x="10" y="698">Xlib:  extension "RANDR" missing on display ":99.0".</tspan>
<tspan x="10" y="714">[4987:0407/215911:WARNING:audio_manager.cc(314)] Multiple instances of AudioManager detected</tspan>
<tspan x="10" y="730">[4987:0407/215911:WARNING:audio_manager.cc(275)] Multiple instances of AudioManager detected</tspan>
<tspan x="10" y="746">[5057:0407/215911:ERROR:sandbox_linux.cc(343)] InitializeSandbox() called with multiple threads \</tspan>
<tspan x="10" y="762">in process gpu-process. </tspan>
<tspan x="10" y="778">[4987:0407/215911:ERROR:browser_gpu_channel_host_factory.cc(131)] Failed to create channel.</tspan>
<tspan x="10" y="794"></tspan>
<tspan x="10" y="810">browserTest - opened url http://127.0.0.1:56973?modeTest=1</tspan>
<tspan x="10" y="826"></tspan>
<tspan x="10" y="842"></tspan>
<tspan x="10" y="858">browserTest - opened url /home/travis/build/npmdoc/node-npmdoc-image-webpack-loader/tmp/build/ap\</tspan>
<tspan x="10" y="874">idoc.html</tspan>
<tspan x="10" y="890"></tspan>
<tspan x="10" y="906">[4988:0407/215913:INFO:CONSOLE(249)] "----------|-----------|-----------|-----------|-----------\</tspan>
<tspan x="10" y="922">|</tspan>
<tspan x="10" y="938">File      |   % Stmts |% Branches |   % Funcs |   % Lines |</tspan>
<tspan x="10" y="954">----------|-----------|-----------|-----------|-----------|</tspan>
<tspan x="10" y="970">----------|-----------|-----------|-----------|-----------|</tspan>
<tspan x="10" y="986">All files |       100 |       100 |       100 |       100 |</tspan>
<tspan x="10" y="1002">----------|-----------|-----------|-----------|-----------|</tspan>
<tspan x="10" y="1018">", source: file:///home/travis/build/npmdoc/node-npmdoc-image-webpack-loader/tmp/electron.15b4a6\</tspan>
<tspan x="10" y="1034">da2400.3832caa136da8.html (249)</tspan>
<tspan x="10" y="1050">[4988:0407/215913:INFO:CONSOLE(249)] "created coverage file:///tmp/build/coverage.html/index.htm\</tspan>
<tspan x="10" y="1066">l", source: file:///home/travis/build/npmdoc/node-npmdoc-image-webpack-loader/tmp/electron.15b4a\</tspan>
<tspan x="10" y="1082">6da2400.3832caa136da8.html (249)</tspan>
<tspan x="10" y="1098">[node test-case 4 of 6 passed] - testCase_buildApp_default</tspan>
<tspan x="10" y="1114"></tspan>
<tspan x="10" y="1130">browserTest - created screenCapture file:///home/travis/build/npmdoc/node-npmdoc-image-webpack-l\</tspan>
<tspan x="10" y="1146">oader/tmp/build/screenCapture.%2F.png</tspan>
<tspan x="10" y="1162"></tspan>
<tspan x="10" y="1178">browserTest - created screenCapture file:///home/travis/build/npmdoc/node-npmdoc-image-webpack-l\</tspan>
<tspan x="10" y="1194">oader/tmp/build/screenCapture.%2F.html</tspan>
<tspan x="10" y="1210"></tspan>
<tspan x="10" y="1226">browserTest - exit-code 0 - http://127.0.0.1:56973?modeTest=1</tspan>
<tspan x="10" y="1242"></tspan>
<tspan x="10" y="1258"></tspan>
<tspan x="10" y="1274">browserTest - merged coverage from /home/travis/build/npmdoc/node-npmdoc-image-webpack-loader/tm\</tspan>
<tspan x="10" y="1290">p/coverage.%2F.json</tspan>
<tspan x="10" y="1306"></tspan>
<tspan x="10" y="1322"></tspan>
<tspan x="10" y="1338">browserTest - merging test-report from /home/travis/build/npmdoc/node-npmdoc-image-webpack-loade\</tspan>
<tspan x="10" y="1354">r/tmp/test-report.%2F.json</tspan>
<tspan x="10" y="1370"></tspan>
<tspan x="10" y="1386">[node test-case 5 of 6 passed] - testCase_webpage_default</tspan>
<tspan x="10" y="1402"></tspan>
<tspan x="10" y="1418">browserTest - exit-code 1 - /home/travis/build/npmdoc/node-npmdoc-image-webpack-loader/tmp/build\</tspan>
<tspan x="10" y="1434">/apidoc.html</tspan>
<tspan x="10" y="1450"></tspan>
<tspan x="10" y="1466">[node test-case 6 of 6 passed] - testCase_buildApidoc_default</tspan>
<tspan x="10" y="1482">-----------------------------------------|-----------|-----------|-----------|-----------|</tspan>
<tspan x="10" y="1498">File                                     |   % Stmts |% Branches |   % Funcs |   % Lines |</tspan>
<tspan x="10" y="1514">-----------------------------------------|-----------|-----------|-----------|-----------|</tspan>
<tspan x="10" y="1530">   node-npmdoc-image-webpack-loader/     |       100 |       100 |       100 |       100 |</tspan>
<tspan x="10" y="1546">      example.js                         |       100 |       100 |       100 |       100 |</tspan>
<tspan x="10" y="1562">      lib.npmdoc_image_webpack_loader.js |       100 |       100 |       100 |       100 |</tspan>
<tspan x="10" y="1578">      test.js                            |       100 |       100 |       100 |       100 |</tspan>
<tspan x="10" y="1594">-----------------------------------------|-----------|-----------|-----------|-----------|</tspan>
<tspan x="10" y="1610">All files                                |       100 |       100 |       100 |       100 |</tspan>
<tspan x="10" y="1626">-----------------------------------------|-----------|-----------|-----------|-----------|</tspan>
<tspan x="10" y="1642"></tspan>
<tspan x="10" y="1658">created coverage file:///home/travis/build/npmdoc/node-npmdoc-image-webpack-loader/tmp/build/cov\</tspan>
<tspan x="10" y="1674">erage.html/index.html</tspan>
<tspan x="10" y="1690">merging file:///home/travis/build/npmdoc/node-npmdoc-image-webpack-loader/tmp/build/test-report.\</tspan>
<tspan x="10" y="1706">json to test-report</tspan>
<tspan x="10" y="1722"></tspan>
<tspan x="10" y="1738">-------------------------------------------------------</tspan>
<tspan x="10" y="1754">| test-report - buildNpmdoc - node - linux v6.10.2 - 2017-04-07T21:58:49.193Z</tspan>
<tspan x="10" y="1770">|   36090 ms            0 failed        6 passed      |</tspan>
<tspan x="10" y="1786">-------------------------------------------------------</tspan>
<tspan x="10" y="1802"></tspan>
<tspan x="10" y="1818">created test-report file:///home/travis/build/npmdoc/node-npmdoc-image-webpack-loader/tmp/build/\</tspan>
<tspan x="10" y="1834">test-report.html</tspan>
<tspan x="10" y="1850"></tspan>
<tspan x="10" y="1866"></tspan>
<tspan x="10" y="1882">npmTest - 0 failed tests</tspan>
<tspan x="10" y="1898"></tspan>
<tspan x="10" y="1914"></tspan>
<tspan x="10" y="1930">[MODE_BUILD=npmTest] - 2017-04-07T21:59:28Z - EXIT_CODE - 0</tspan>
</text>
</svg>
